<?xml version="1.0" standalone="no"?>
  <!DOCTYPE svg PUBLIC "-//W3C//DTD SVG 1.1//EN" "http://www.w3.org/Graphics/SVG/1.1/DTD/svg11.dtd" >
  <svg>
  <metadata>
  Created by font-carrier
  </metadata>
  <defs>
  <font id="iconfont" horiz-adv-x="1024" vert-adv-y="1024" >
    <font-face
      
      font-family="iconfont"
      
      font-weight="400"
      
      font-stretch="normal"
      
      units-per-em="1024"
      
      ascent="812"
      
      descent="-212"
      
    />
      <missing-glyph />

      
      <glyph glyph-name="x" unicode="&#x78;" horiz-adv-x="100"
        d="M20 20 L50 20 L50 -20 Z" />
      

      
      <glyph glyph-name="more-vertical" unicode="&#xE001;" d="M512 95.2A102.4 102.4 0 1 1 512-109.6 102.4 102.4 0 1 1 512 95.2ZM512 402.4A102.4 102.4 0 1 1 512 197.6 102.4 102.4 0 1 1 512 402.4ZM512 709.6A102.4 102.4 0 1 1 512 504.8 102.4 102.4 0 1 1 512 709.6Z"  horiz-adv-x="1024" vert-adv-y="1024"  />

      
      <glyph glyph-name="admin" unicode="&#xE002;" d="M512 684A384 384 0 1 1 896 300 384 384 0 0 1 512 684ZM512 543.84A115.84 115.84 0 1 0 396.16 428H396.16A115.84 115.84 0 0 0 512 543.84ZM749.76 121.76A308.48 308.48 0 0 0 274.24 121.76 10.24 10.24 0 0 0 274.24 134.24 307.84 307.84 0 0 0 749.76 134.24 10.24 10.24 0 0 0 749.76 121.76Z"  horiz-adv-x="1024" vert-adv-y="1024"  />

      
      <glyph glyph-name="dashboards" unicode="&#xE003;" d="M810.56 684H213.44A85.12 85.12 0 0 1 128 598.56V1.44A85.12 85.12 0 0 1 213.44-84H810.56A85.12 85.12 0 0 1 896 1.44V598.56A85.12 85.12 0 0 1 810.56 684ZM341.44 65.44H256V406.56H341.44ZM554.56 65.44H469.44V534.56H554.56ZM768 65.44H682.56V278.56H768Z"  horiz-adv-x="1024" vert-adv-y="1024"  />

      
      <glyph glyph-name="rules" unicode="&#xE005;" d="M354.24 498.72L297.28 556 32 289.44 298.56 23.2 355.52 80.16 144.96 289.44ZM726.72 556L669.76 498.72 879.04 289.44 669.76 80.16 726.72 23.2 992 289.44ZM310.08 330.08H391.04V249.12H310.08ZM471.68 330.08H552.64V249.12H471.68ZM633.28 330.08H714.24V249.12H633.28Z"  horiz-adv-x="1024" vert-adv-y="1024"  />

      
      <glyph glyph-name="objects" unicode="&#xE006;" d="M881.28 524V577.76H913.28A20.16 20.16 0 0 1 933.12 597.92H933.12V664.16A19.84 19.84 0 0 1 914.56 684H848.32A20.16 20.16 0 0 1 828.16 664.16H828.16V632.16H192V664.16A19.84 19.84 0 0 1 171.52 684H105.28A19.84 19.84 0 0 1 85.44 664.16H85.44V597.92A19.84 19.84 0 0 1 105.28 577.76H137.28V47.2H105.28A19.84 19.84 0 0 1 85.44 27.36V-38.88A19.84 19.84 0 0 1 105.28-59.04H171.52A20.16 20.16 0 0 1 192-38.88H192V-6.88H828.8V-38.88A20.16 20.16 0 0 1 848.64-59.04H915.2A20.16 20.16 0 0 1 935.04-38.88H935.04V27.36A19.84 19.84 0 0 1 915.2 47.2H883.2ZM244.48 279.2V503.2A19.84 19.84 0 0 0 264.32 524H544A19.84 19.84 0 0 0 563.84 504.16H563.84V280.16A19.84 19.84 0 0 0 544 260.32H264.64A19.84 19.84 0 0 0 244.48 280.16ZM775.04 119.2A19.84 19.84 0 0 0 755.2 99.36H476.8A19.84 19.84 0 0 0 456.96 119.2H456.96V206.24H576A39.68 39.68 0 0 1 615.68 246.24V364H755.2A19.84 19.84 0 0 0 775.04 344.16H775.04Z"  horiz-adv-x="1024" vert-adv-y="1024"  />

      
      <glyph glyph-name="system-settings" unicode="&#xE007;" d="M857.28 284.96A288 288 0 0 1 854.72 322.08 42.24 42.24 0 0 0 873.6 360.8L920.64 388A25.92 25.92 0 0 1 930.24 423.52L841.28 577.44A26.24 26.24 0 0 1 805.76 588L758.72 560.8A41.92 41.92 0 0 0 715.52 564 254.08 254.08 0 0 1 683.52 584.16 252.16 252.16 0 0 1 651.52 600.8 41.92 41.92 0 0 0 627.52 636.64V690.08A25.92 25.92 0 0 1 601.28 716H423.04A25.92 25.92 0 0 1 397.12 690.08V635.68A42.56 42.56 0 0 0 373.12 599.84 252.16 252.16 0 0 1 339.52 583.2 288 288 0 0 1 307.52 563.04 41.28 41.28 0 0 0 264.64 559.84L218.56 588A25.92 25.92 0 0 1 183.04 578.4L94.08 423.52A25.92 25.92 0 0 1 103.36 388L150.4 360.8A40.96 40.96 0 0 0 169.28 322.08 292.48 292.48 0 0 1 167.04 284.96 285.44 285.44 0 0 1 169.28 247.84 41.92 41.92 0 0 0 150.4 208.8L103.36 181.92A25.92 25.92 0 0 1 94.08 146.4L183.04-7.84A25.92 25.92 0 0 1 218.24-17.44L265.28 9.76A42.88 42.88 0 0 0 308.48 6.88 220.16 220.16 0 0 1 337.6-12.64 277.76 277.76 0 0 1 372.8-30.24 41.92 41.92 0 0 0 396.8-66.08V-120.16A26.24 26.24 0 0 1 423.04-146.4H600.96A26.24 26.24 0 0 1 626.88-120.16V-66.08A42.88 42.88 0 0 0 651.2-30.24 293.44 293.44 0 0 1 683.2-13.6 273.28 273.28 0 0 1 715.2 6.88 42.24 42.24 0 0 0 758.08 9.76L805.12-17.44A25.92 25.92 0 0 1 840.64-7.84L929.92 146.08A26.56 26.56 0 0 1 920.32 181.92L873.28 208.8A41.92 41.92 0 0 0 854.4 247.84 238.4 238.4 0 0 1 856.64 284.96ZM512 140A143.68 143.68 0 1 0 512 428 143.68 143.68 0 1 0 512 140Z"  horiz-adv-x="1024" vert-adv-y="1024"  />

      
      <glyph glyph-name="ota-updates" unicode="&#xE008;" d="M375.04 163.04H648.96V436.96H375.04ZM466.24 345.76H557.76V254.24H466.24ZM922.56 345.76V436.96H832V528.16A91.52 91.52 0 0 1 740.16 620H648.96V710.56H557.76V620H466.56V710.56H375.36V620H284.16A91.52 91.52 0 0 1 192 528.16V436.96H101.44V345.76H192V254.24H101.44V163.04H192V71.84A91.2 91.2 0 0 1 283.84-20H375.04V-111.2H466.24V-20H557.76V-111.2H648.96V-20H740.16A91.52 91.52 0 0 1 832 71.84V163.04H923.2V254.24H832V345.44ZM282.56 71.84V528.48H740.48V71.84Z"  horiz-adv-x="1024" vert-adv-y="1024"  />

      
      <glyph glyph-name="devices" unicode="&#xE009;" d="M170.56 556H853.44V641.44H170.56A85.44 85.44 0 0 1 85.44 556V44A85.44 85.44 0 0 1 170.56-41.44H309.44V44H170.56ZM896 423.84H682.56A38.4 38.4 0 0 1 644.16 385.44H644.16V1.44A38.4 38.4 0 0 1 682.56-36.96H896A38.4 38.4 0 0 1 934.4 1.44H934.4V385.44A38.4 38.4 0 0 1 896 423.84ZM857.6 39.84H720.96V347.04H857.6ZM554.56 300H384V214.56H341.44V44H384V-41.44H554.56V44H597.44V214.56H554.56ZM554.56 86.56H384V172H554.56Z"  horiz-adv-x="1024" vert-adv-y="1024"  />

      
      <glyph glyph-name="more-horizontal" unicode="&#xE00A;" d="M204.8 402.4A102.4 102.4 0 1 1 204.8 197.6 102.4 102.4 0 1 1 204.8 402.4ZM512 402.4A102.4 102.4 0 1 1 512 197.6 102.4 102.4 0 1 1 512 402.4ZM819.2 402.4A102.4 102.4 0 1 1 819.2 197.6 102.4 102.4 0 1 1 819.2 402.4Z"  horiz-adv-x="1024" vert-adv-y="1024"  />

      
      <glyph glyph-name="arrow-down" unicode="&#xE00B;" d="M499.2 95.2L217.6 379.68 290.88 453.6 499.2 242.72 707.84 453.6 780.8 379.68Z"  horiz-adv-x="1024" vert-adv-y="1024"  />

      
      <glyph glyph-name="search" unicode="&#xE00C;" d="M616.96 140A279.04 279.04 0 1 0 672 195.04L896-28.96 840-84ZM449.6 140A224 224 0 1 1 225.6 364 224 224 0 0 1 449.6 140Z"  horiz-adv-x="1024" vert-adv-y="1024"  />

      
      <glyph glyph-name="add" unicode="&#xE00D;" d="M832.32 353.12L544 353.12 544 641.44 458.88 641.44 458.88 353.12 170.56 353.12 170.56 268 458.88 268 458.88-20.32 544-20.32 544 268 832.32 268 832.32 353.12Z"  horiz-adv-x="1024" vert-adv-y="1024"  />

      
      <glyph glyph-name="delete" unicode="&#xE00E;" d="M341.44-84A85.12 85.12 0 0 0 256 1.44V513.44H768V1.44A85.12 85.12 0 0 0 682.56-84ZM213.44 556V641.44H384V684H640V641.44H810.56V556Z"  horiz-adv-x="1024" vert-adv-y="1024"  />

      
      <glyph glyph-name="eliminate" unicode="&#xE00F;" d="M811.52 60.96L578.88 293.28 811.52 525.92 751.04 586.08 518.72 353.76 286.08 586.08 225.92 525.92 458.24 293.28 232 66.72 292.16 6.56 518.72 233.12 751.36 0.48 811.52 60.96Z"  horiz-adv-x="1024" vert-adv-y="1024"  />

      
      <glyph glyph-name="time" unicode="&#xE010;" d="M512 668A368 368 0 1 1 880 300 368.32 368.32 0 0 1 512 668ZM512-4A304 304 0 1 0 816 300 304.32 304.32 0 0 0 512-4ZM544 469.28L480 469.28 480 286.88 633.6 132.96 679.04 178.4 544 313.12 544 469.28Z"  horiz-adv-x="1024" vert-adv-y="1024"  />

      
      <glyph glyph-name="data" unicode="&#xE016;" d="M731.2 679.84A109.44 109.44 0 0 0 840.64 570.4V29.6A109.76 109.76 0 0 0 731.2-80.16H292.8A109.76 109.76 0 0 0 183.36 29.6V570.4A109.44 109.44 0 0 0 292.8 679.84ZM443.2 334.24H368A32 32 0 0 1 368 272.48H443.52A32 32 0 0 1 443.52 334.24ZM518.72 464.16H368.32A32 32 0 0 1 368.32 402.72H519.04A32 32 0 0 1 519.04 464.16Z"  horiz-adv-x="1024" vert-adv-y="1024"  />

      
      <glyph glyph-name="download" unicode="&#xE017;" d="M213.44 44H810.88V-41.44H213.44ZM810.56 428L640 428 640 684 384 684 384 428 213.44 428 512 129.44 810.56 428Z"  horiz-adv-x="1024" vert-adv-y="1024"  />

      
      <glyph glyph-name="edit" unicode="&#xE018;" d="M833.92 538.08L750.08 621.92A34.88 34.88 0 0 1 700.48 621.92L700.48 621.92 633.6 556 771.84 417.76 834.24 486.88A35.2 35.2 0 0 1 834.24 536.48ZM179.2 105.44V-32.8H317.44L718.08 371.36 579.84 509.92Z"  horiz-adv-x="1024" vert-adv-y="1024"  />

      
      <glyph glyph-name="upgrade" unicode="&#xE019;" d="M763.52 399.52A245.76 245.76 0 0 1 501.76 608.48 243.84 243.84 0 0 1 270.72 367.52 189.44 189.44 0 1 1 288-10.72H730.24A210.24 210.24 0 0 1 942.72 179.36 207.68 207.68 0 0 1 763.52 399.52ZM678.72 239.52A14.72 14.72 0 0 0 665.28 230.88H589.44V90.72A14.72 14.72 0 0 0 574.72 75.68H454.4A15.04 15.04 0 0 0 439.68 90.72H439.68V229.6H363.84A15.04 15.04 0 0 0 352.64 254.24L503.36 430.88A15.36 15.36 0 0 0 525.12 430.88L525.12 430.88 675.84 254.24A14.72 14.72 0 0 0 678.08 238.24Z"  horiz-adv-x="1024" vert-adv-y="1024"  />

      
      <glyph glyph-name="version" unicode="&#xE01A;" d="M750.4 634.08C766.72 619.68 779.52 607.52 789.12 597.6A235.52 235.52 0 0 0 811.2 572.32 58.56 58.56 0 0 0 820.8 554.72 55.68 55.68 0 0 0 822.4 542.24V527.84H689.92A22.08 22.08 0 0 0 672 534.56 60.8 60.8 0 0 0 660.8 550.24 64 64 0 0 0 654.08 568.8 51.52 51.52 0 0 0 651.84 584.48V695.52H653.44A64 64 0 0 0 668.8 693.6 60.16 60.16 0 0 0 686.4 684.96 288 288 0 0 0 711.68 666.08C722.88 658.08 736 647.2 750.4 634.08ZM596.16 582.56A142.08 142.08 0 0 1 601.6 545.76 109.44 109.44 0 0 1 618.88 509.28 100.16 100.16 0 0 1 648.64 481.12 79.04 79.04 0 0 1 690.88 469.92H822.72V18.08A103.68 103.68 0 0 0 812.48-28.64 119.04 119.04 0 0 0 784.96-64.16 125.12 125.12 0 0 0 746.88-87.2 116.48 116.48 0 0 0 706.24-95.52H317.76A85.12 85.12 0 0 0 280.32-84 153.6 153.6 0 0 0 242.56-57.76 144.96 144.96 0 0 0 213.12-20.32 88 88 0 0 0 201.6 23.52V579.04A96 96 0 0 0 210.56 620 139.52 139.52 0 0 0 234.24 657.44 157.44 157.44 0 0 0 268.16 684 75.2 75.2 0 0 0 307.84 695.2H595.84V582.56ZM524.16 175.84A44.8 44.8 0 0 1 536 204.96 34.88 34.88 0 0 1 526.08 232.8L377.92 381.6A38.08 38.08 0 0 1 324.8 381.6 39.68 39.68 0 0 1 313.92 354.08 37.44 37.44 0 0 1 324.8 327.52L445.76 204 324.8 82.08A37.12 37.12 0 0 1 313.92 55.52 40.32 40.32 0 0 1 324.8 28 38.08 38.08 0 0 1 377.92 28ZM709.12 76H539.52V19.04H709.12Z"  horiz-adv-x="1024" vert-adv-y="1024"  />

      
      <glyph glyph-name="clear" unicode="&#xE01B;" d="M512 607.2A307.2 307.2 0 1 1 819.2 300 307.84 307.84 0 0 1 512 607.2ZM512 44A256 256 0 1 0 768 300 256 256 0 0 0 512 44ZM583.36 407.84L512 336.16 440.64 407.84 404.16 371.36 475.84 300 404.16 228.64 440.64 192.16 512 263.84 583.36 192.16 619.84 228.64 548.16 300 619.84 371.36 583.36 407.84Z"  horiz-adv-x="1024" vert-adv-y="1024"  />

      
      <glyph glyph-name="arrow-right" unicode="&#xE01C;" d="M691.2 276.96L406.72-4.64 332.8 68.32 544 276.96 332.8 485.6 406.72 558.56Z"  horiz-adv-x="1024" vert-adv-y="1024"  />

      
      <glyph glyph-name="selected" unicode="&#xE01D;" d="M409.92 26.4L194.24 242.08 266.56 314.4 409.92 171.04 754.24 515.36 826.56 443.04 409.92 26.4Z"  horiz-adv-x="1024" vert-adv-y="1024"  />

      
      <glyph glyph-name="exit-fullscreen" unicode="&#xE01E;" d="M409.6 658.4H307.2V504.8H153.6V402.4H409.6ZM307.2-58.4H409.6V197.6H153.6V95.2H307.2ZM716.8 95.2H870.4V197.6H614.4V-58.4H716.8ZM870.4 402.4V504.8H716.8V658.4H614.4V402.4Z"  horiz-adv-x="1024" vert-adv-y="1024"  />

      
      <glyph glyph-name="fullscreen" unicode="&#xE01F;" d="M153.6 402.4H256V556H409.6V658.4H153.6ZM256 197.6H153.6V-58.4H409.6V44H256ZM768 44H614.4V-58.4H870.4V197.6H768ZM614.4 658.4V556H768V402.4H870.4V658.4Z"  horiz-adv-x="1024" vert-adv-y="1024"  />

      
      <glyph glyph-name="logo" unicode="&#xE020;" d="M1030.7586-25.5533L1105.7288-25.5533 1195.5611 400.8195 1120.5908 400.8195 1030.7586-25.5533ZM1160.5529 590.3919L1140.0765 493.2938 1215.0467 493.2938 1235.5232 590.3919 1160.5529 590.3919ZM1221.9823-25.5533L1297.6131-25.5533 1427.4074 590.3919 1351.7766 590.3919 1221.9823-25.5533ZM1791.0297 385.297A227.2227 227.2227 0 0 1 1698.2251 400.8195 376.5027 376.5027 0 0 1 1606.7416 390.5812 201.4619 201.4619 0 0 1 1532.7621 355.5731 208.3975 208.3975 0 0 1 1477.2775 289.52 365.9342 365.9342 0 0 1 1440.9483 187.1377 310.7798 310.7798 0 0 1 1432.0312 84.7554 118.5653 118.5653 0 0 1 1459.7735 18.7023 122.5285 122.5285 0 0 1 1519.2212-15.315 355.0354 355.0354 0 0 1 1608.7232-25.5533L1658.5933-25.5533C1675.4368-25.5533 1689.6382-25.5533 1703.8396-23.2414S1732.903-19.9388 1744.7926-17.9572 1760.6453-15.315 1769.5625-13.3335L1783.4336 44.1327A246.3781 246.3781 0 0 0 1711.1055 32.9037C1682.7027 31.2524 1657.9327 30.9221 1632.172 30.9221A217.3147 217.3147 0 0 0 1566.1189 40.4998 81.5756 81.5756 0 0 0 1525.8265 64.2789 69.0255 69.0255 0 0 0 1509.6435 104.9016 260.5795 260.5795 0 0 0 1517.2396 172.606L1834.6248 180.8627 1843.2117 207.9444Q1847.1749 220.1642 1849.1565 228.7512A284.3586 284.3586 0 0 1 1855.4315 289.1897 112.6205 112.6205 0 0 1 1840.5696 345.0046 106.3455 106.3455 0 0 1 1791.0297 385.297ZM1773.8559 228.0906L1525.8265 221.4853A216.6542 216.6542 0 0 0 1542.6701 268.383 139.372 139.372 0 0 0 1572.7242 310.9873 123.189 123.189 0 0 0 1618.3009 337.7388 221.2779 221.2779 0 0 0 1686.0053 346.6559 137.7207 137.7207 0 0 0 1744.4623 337.0782 56.1451 56.1451 0 0 0 1772.8651 311.3175 77.6124 77.6124 0 0 0 1779.8007 273.337 323.3299 323.3299 0 0 0 1773.8559 228.0906ZM2150.3586 400.8195A243.7359 243.7359 0 0 1 2018.2524 369.7745 123.8496 123.8496 0 0 1 1958.8046 288.5292 150.6011 150.6011 0 0 1 1954.8414 243.2828 57.4662 57.4662 0 0 1 1968.7126 210.2563 90.1625 90.1625 0 0 1 2001.7391 186.4772 325.3115 325.3115 0 0 1 2061.8474 168.6428C2083.3147 164.0191 2100.1582 159.7257 2112.7083 155.7625A90.4927 90.4927 0 0 0 2141.1112 141.5611 30.7147 30.7147 0 0 0 2152.0099 121.4149 92.8046 92.8046 0 0 0 2149.3678 91.3607 66.0531 66.0531 0 0 0 2113.6991 41.4906 210.7094 210.7094 0 0 0 2030.1419 27.9497C2019.9037 27.9497 2008.3444 27.9497 1997.1154 27.9497S1972.6758 29.6011 1961.1165 31.2524L1928.0899 36.5366C1917.1912 38.5182 1907.9437 40.8301 1900.3476 42.8117L1886.1462-13.6637A239.4425 239.4425 0 0 1 1910.5858-18.6177C1920.8241-20.269 1932.0531-21.9204 1943.6124-22.9112L1981.2627-25.5533 2017.5919-25.5533A282.7073 282.7073 0 0 1 2155.3126 3.1798 129.4641 129.4641 0 0 1 2221.3657 94.0028 136.7299 136.7299 0 0 1 2224.3381 144.5335 61.7596 61.7596 0 0 1 2207.1642 179.5416 119.2258 119.2258 0 0 1 2166.8719 203.3207 523.4708 523.4708 0 0 1 2103.1306 221.155C2085.6265 224.788 2070.1041 228.0906 2060.5264 231.3933A60.7688 60.7688 0 0 0 2036.417 243.9434 28.0726 28.0726 0 0 0 2026.8393 261.1172 66.0531 66.0531 0 0 0 2028.4906 287.2081 63.411 63.411 0 0 0 2063.4988 334.7664 195.1869 195.1869 0 0 0 2139.7901 346.9862 392.6857 392.6857 0 0 0 2200.8892 342.3625 297.2389 297.2389 0 0 0 2244.8145 331.794L2257.0343 389.2602A250.011 250.011 0 0 1 2216.4117 396.8563 616.9359 616.9359 0 0 1 2150.3586 400.8195ZM2291.0517-25.5533L2365.6917-25.5533 2455.5239 400.8195 2380.8839 400.8195 2291.0517-25.5533ZM2495.486 590.3919L2421.1763 590.3919 2400.3696 493.2938 2475.0096 493.2938 2495.486 590.3919ZM2877.9335 336.748A140.6931 140.6931 0 0 1 2754.7444 400.8195H2741.2035A243.4057 243.4057 0 0 1 2642.1239 382.6549 208.3975 208.3975 0 0 1 2572.7681 334.1058 227.5529 227.5529 0 0 1 2527.1915 262.7685 499.0312 499.0312 0 0 1 2500.44 176.2389 297.2389 297.2389 0 0 1 2491.8531 104.5713 143.9958 143.9958 0 0 1 2507.0453 33.8945 105.3547 105.3547 0 0 1 2556.2549-11.6821 293.9363 293.9363 0 0 1 2754.4142-4.4163L2762.6708 0.868 2775.2209 60.3158A154.8945 154.8945 0 0 0 2742.1943 43.4722 213.6818 213.6818 0 0 0 2669.8662 32.5735 129.1338 129.1338 0 0 0 2609.0973 43.8025 66.0531 66.0531 0 0 0 2579.3735 79.1409 127.8127 127.8127 0 0 0 2573.7589 131.9834 234.1582 234.1582 0 0 0 2580.6945 176.2389 611.3214 611.3214 0 0 0 2597.5381 238.3288 173.0591 173.0591 0 0 0 2625.2804 291.5016 132.1062 132.1062 0 0 0 2670.5267 328.1611 155.555 155.555 0 0 0 2740.543 342.0322 157.2064 157.2064 0 0 0 2806.5961 330.1427 78.9335 78.9335 0 0 0 2843.5858 297.1161 101.7218 101.7218 0 0 0 2855.1451 244.9342 339.5129 339.5129 0 0 0 2845.5674 178.8811H2845.5674V176.5692L2843.5858 167.652 2813.5317 24.6471 2806.2658-10.0308A174.3802 174.3802 0 0 0 2744.5062-118.0276 202.4527 202.4527 0 0 0 2622.308-151.0542 846.1402 846.1402 0 0 0 2474.349-128.2658L2461.7989-187.7136A802.8754 802.8754 0 0 1 2548.6588-208.1901C2568.4747-210.1717 2588.2906-211.4927 2608.4368-211.4927A292.285 292.285 0 0 1 2792.3947-159.9713 239.1122 239.1122 0 0 1 2878.594-17.2966L2965.7841 400.8195H2891.4743ZM3361.4421 389.5904A203.4435 203.4435 0 0 1 3288.1232 400.8195 337.8616 337.8616 0 0 1 3243.8676 397.1865 222.9292 222.9292 0 0 1 3199.612 385.9575L3190.3646 382.6549A208.7278 208.7278 0 0 1 3124.3115 341.3717L3176.8237 590.7221H3104.4956L2972.3894-25.5533H3046.6991L3104.4956 244.9342A188.9119 188.9119 0 0 0 3140.8248 294.8042 143.005 143.005 0 0 0 3180.1264 321.5558 148.2892 148.2892 0 0 0 3222.4004 334.1058 320.0273 320.0273 0 0 0 3266.3257 337.0782 104.3639 104.3639 0 0 0 3309.9207 329.4821 45.5766 45.5766 0 0 0 3333.0393 308.3451 62.4202 62.4202 0 0 0 3339.3143 275.3186 293.2758 293.2758 0 0 0 3332.0485 229.7419L3278.2152-24.8927H3352.525L3411.6425 256.1632A209.0581 209.0581 0 0 1 3417.9175 314.6202 87.1901 87.1901 0 0 1 3401.7345 359.5363 85.869 85.869 0 0 1 3361.4421 389.5904ZM3614.4255 400.4892L3654.7179 590.3919H3580.7384L3481.6588 115.1398A280.7257 280.7257 0 0 1 3473.7324 43.8025 68.0347 68.0347 0 0 1 3488.9246 0.868 66.0531 66.0531 0 0 1 3527.5657-20.269 308.468 308.468 0 0 1 3591.3069-25.5533 228.874 228.874 0 0 1 3618.3887-25.5533L3642.1678-23.2414 3655.0481 36.8669A183.9579 183.9579 0 0 0 3633.2506 33.5642 227.2227 227.2227 0 0 0 3605.8386 33.5642 125.5009 125.5009 0 0 0 3572.812 37.1972 29.0634 29.0634 0 0 0 3555.308 50.4078 47.228 47.228 0 0 0 3551.0145 76.4988 264.2124 264.2124 0 0 0 3557.2896 119.103L3599.8938 326.84H3715.4867L3719.7802 347.6467 3731.0092 400.4892H3615.4163ZM1.9816-25.5533L136.0694-25.5533 241.4241 472.8173 140.0326 630.0237 1.9816-25.5533ZM871.5706 416.3419L778.4358-25.5533 912.8538-25.5533 1040.006 577.5115 871.5706 416.3419ZM1017.548 812L567.7264 382.6549A25.7607 25.7607 0 0 0 528.0945 387.2786L363.292 644.2251A36.3292 36.3292 0 0 1 330.2655 661.0687H165.1327L168.7657 655.4542H168.7657L499.0312 139.9097A18.1646 18.1646 0 0 1 526.7735 136.6071L1231.2297 812Z"  horiz-adv-x="3732" vert-adv-y="1024"  />

      
      <glyph glyph-name="lock" unicode="&#xE021;" d="M780.8 385.44H732.16V483.68A220.48 220.48 0 1 1 291.2 483.68V385.44H242.56A48.96 48.96 0 0 1 193.6 336.8V-55.84A49.28 49.28 0 0 1 242.56-104.8H780.8A49.28 49.28 0 0 1 832-55.84V336.8A48.96 48.96 0 0 1 780.8 385.44ZM658.56 385.44H364.8V483.68A146.88 146.88 0 1 0 658.56 483.68Z"  horiz-adv-x="1024" vert-adv-y="1024"  />

      
      <glyph glyph-name="logout" unicode="&#xE022;" d="M789.12 680.8H234.88A88.64 88.64 0 0 1 146.56 592.48V422.88H216.96V592.48A17.92 17.92 0 0 0 234.88 610.4H789.12A17.92 17.92 0 0 0 807.04 592.48V7.52A17.92 17.92 0 0 0 789.12-10.4H234.88A17.92 17.92 0 0 0 216.96 7.52V177.12H146.56V7.52A88.64 88.64 0 0 1 234.88-80.8H789.12A88.64 88.64 0 0 1 877.44 7.52V592.48A88.64 88.64 0 0 1 789.12 680.8ZM151.04 264.8L563.52 264.8 424 125.28 473.92 75.36 698.56 300 473.92 524.64 424 474.72 563.52 335.2 151.04 335.2 151.04 264.8Z"  horiz-adv-x="1024" vert-adv-y="1024"  />

      
      <glyph glyph-name="language" unicode="&#xE023;" d="M800 679.2H224A89.92 89.92 0 0 1 132.8 588V12A89.92 89.92 0 0 1 224-79.2H800A89.92 89.92 0 0 1 891.2 12V588A89.92 89.92 0 0 1 800 679.2ZM816.64 588V12A15.68 15.68 0 0 0 801.28-3.36H224A15.68 15.68 0 0 0 207.36 12V588A15.68 15.68 0 0 0 224 604.64H800A15.68 15.68 0 0 0 816.64 588ZM720.32 442.4A37.12 37.12 0 0 1 683.2 405.28V295.52L593.6 426.4A37.76 37.76 0 0 1 525.12 405.28V174.56A37.44 37.44 0 0 1 600 174.56V284.64L689.6 153.44A37.12 37.12 0 0 1 720 137.12 38.08 38.08 0 0 1 757.76 174.56V405.28A37.12 37.12 0 0 1 720.32 442.4ZM459.52 367.84A37.44 37.44 0 0 1 459.52 442.4H301.76A37.12 37.12 0 0 1 264.32 405.28V174.56A37.12 37.12 0 0 1 301.76 137.44H459.52A37.44 37.44 0 0 1 459.52 212H338.88V249.44H459.52A37.44 37.44 0 0 1 496.64 287.52V291.36A37.76 37.76 0 0 1 459.52 323.36H338.88V367.84Z"  horiz-adv-x="1024" vert-adv-y="1024"  />

      
      <glyph glyph-name="copy-link" unicode="&#xE024;" d="M689.28 565.92H216.64A88.64 88.64 0 0 1 128 477.28V4.64A88.64 88.64 0 0 1 216.64-84H689.28A88.64 88.64 0 0 1 777.92 4.64V477.28A88.64 88.64 0 0 1 689.28 565.92ZM501.44 127.52L405.44 31.52A106.56 106.56 0 0 0 254.72 31.52L252.8 33.12A107.2 107.2 0 0 0 252.8 183.84L320 251.04A151.68 151.68 0 0 1 330.88 192.8L288 149.28A57.92 57.92 0 0 1 288 67.68L289.92 67.68A57.28 57.28 0 0 1 371.52 67.68L467.52 163.68A57.92 57.92 0 0 1 467.52 245.28L465.6 247.2A39.04 39.04 0 0 1 454.08 255.84L489.28 291.04A103.68 103.68 0 0 0 500.16 281.76L502.08 279.84A106.88 106.88 0 0 0 501.44 127.52ZM641.92 268L576 200.16A146.24 146.24 0 0 1 565.44 258.72L608 301.92A57.28 57.28 0 0 1 608 383.52L608 385.44A57.92 57.92 0 0 1 526.4 385.44L430.4 289.44A57.92 57.92 0 0 1 430.4 207.84L432.32 205.92A60.16 60.16 0 0 1 443.84 197.28L408.64 162.08C404.8 164.96 401.28 168.16 397.76 171.36L392.96 172A107.2 107.2 0 0 0 392.96 322.72L488.96 418.72A106.56 106.56 0 0 0 639.68 418.72L641.28 417.12H641.28A107.2 107.2 0 0 0 641.92 268ZM807.68 684H334.72A88.64 88.64 0 0 1 247.68 609.76H754.88A66.88 66.88 0 0 0 821.76 542.56V35.36A88.64 88.64 0 0 1 896 122.72V595.36A88.96 88.96 0 0 1 807.68 684Z"  horiz-adv-x="1024" vert-adv-y="1024"  />

      
      <glyph glyph-name="name" unicode="&#xE025;" d="M512 291.04A199.68 199.68 0 1 1 312.64 492 199.68 199.68 0 0 1 512 291.04ZM512 629.92A139.2 139.2 0 1 0 372.8 492 139.2 139.2 0 0 0 512 629.92ZM698.88 263.84H325.12A176.96 176.96 0 0 1 325.12-90.08H698.88A176.96 176.96 0 0 1 698.88 263.84ZM698.88-29.92H325.12A116.8 116.8 0 0 0 325.12 203.68H698.88A116.8 116.8 0 0 0 698.88-29.92Z"  horiz-adv-x="1024" vert-adv-y="1024"  />

      
      <glyph glyph-name="password" unicode="&#xE026;" d="M736 409.12V466.72A224 224 0 0 1 288 466.72V409.12A109.76 109.76 0 0 1 185.6 300V18.72A109.76 109.76 0 0 1 295.04-90.72H728.96A109.76 109.76 0 0 1 838.4 18.72V300A109.76 109.76 0 0 1 736 409.12ZM512 633.12A166.08 166.08 0 0 0 677.76 467.36V410.08H346.24V466.72A166.08 166.08 0 0 0 512 632.48ZM780.16 19.36A51.2 51.2 0 0 0 728.96-31.84H295.04A51.2 51.2 0 0 0 243.84 19.36V300A51.2 51.2 0 0 0 295.04 351.2H728.96A51.2 51.2 0 0 0 780.16 300ZM512 268A89.28 89.28 0 0 1 482.88 94.56V17.76H541.12V94.56A89.28 89.28 0 0 1 512 268ZM512 147.36A32 32 0 1 0 544 179.36 32 32 0 0 0 512 148.32Z"  horiz-adv-x="1024" vert-adv-y="1024"  />

      

  </font>
</defs>
</svg>
